<svg xmlns="http://www.w3.org/2000/svg" viewBox="0 0 64 64" width="64" height="64">
  <rect x="2" y="2" width="60" height="60" rx="14" fill="#0d0e12" stroke="#26273010" stroke-width="1"></rect>
  <circle cx="32" cy="32" r="9" fill="#9d86ff" opacity="0.30"></circle>
  <g stroke="#6847de" stroke-width="2.4" stroke-linecap="round">
    <line x1="26" y1="14" x2="26" y2="20"></line><line x1="32" y1="14" x2="32" y2="20"></line><line x1="38" y1="14" x2="38" y2="20"></line>
    <line x1="26" y1="44" x2="26" y2="50"></line><line x1="32" y1="44" x2="32" y2="50"></line><line x1="38" y1="44" x2="38" y2="50"></line>
    <line x1="14" y1="26" x2="20" y2="26"></line><line x1="14" y1="32" x2="20" y2="32"></line><line x1="14" y1="38" x2="20" y2="38"></line>
    <line x1="44" y1="26" x2="50" y2="26"></line><line x1="44" y1="32" x2="50" y2="32"></line><line x1="44" y1="38" x2="50" y2="38"></line>
  </g>
  <rect x="20" y="20" width="24" height="24" rx="5" fill="none" stroke="#9d86ff" stroke-width="2.6"></rect>
  <rect x="26" y="26" width="12" height="12" rx="2.5" fill="none" stroke="#6847de" stroke-width="1.4" opacity="0.7"></rect>
  <circle cx="32" cy="32" r="3.4" fill="#ece4ff"></circle>
</svg>